PathFileType	4	(X/Y/Z)	15_coords_data.trc
DataRate	CameraRate	NumFrames	NumMarkers	Units	OrigDataRate	OrigDataStartFrame	OrigNumFrames
30.0	30.0	9	21	m	30.0	20	68
Frame#	Time	THUMB_TIP	THUMB_IP	THUMB_MCP	THUMB_CMC	INDEX_TIP	INDEX_DIP	INDEX_PIP	INDEX_MCP	MIDDLE_TIP	MIDDLE_DIP	MIDDLE_PIP	MIDDLE_MCP	RING_TIP	RING_DIP	RING_PIP	RING_MCP	PINKY_TIP	PINKY_DIP	PINKY_PIP	PINKY_MCP	WRIST
X1	Y1	Z1	X2	Y2	Z2	X3	Y3	Z3	X4	Y4	Z4	X5	Y5	Z5	X6	Y6	Z6	X7	Y7	Z7	X8	Y8	Z8	X9	Y9	Z9	X10	Y10	Z10	X11	Y11	Z11	X12	Y12	Z12	X13	Y13	Z13	X14	Y14	Z14	X15	Y15	Z15	X16	Y16	Z16	X17	Y17	Z17	X18	Y18	Z18	X19	Y19	Z19	X20	Y20	Z20	X21	Y21	Z21
18	0.6333333333333304	0.5340898650584964	-0.01043175876153557	-0.14772193398614358	0.5171403867693365	-0.011998645196943047	-0.13228625931271792	0.49051048126486696	-0.019580502001192768	-0.11806713204614927	0.4771051534184837	-0.027015391995000027	-0.07617549092156484	0.5625911095298638	0.0071087002130280075	-0.1479981793946882	0.5481700204252316	0.017640897113855636	-0.14498072724453603	0.5262974434717733	0.027296005308908633	-0.13721032853167253	0.4888373975379545	0.02385303471923439	-0.11724718734209968	0.5754687144349974	0.002580219118710758	-0.13285162796706862	0.5625896204932558	0.013740662676982485	-0.1267219102882173	0.5398307700438256	0.02872127739768293	-0.11637659933057015	0.5005217529765208	0.034110308208988194	-0.09583621362053185	0.577442803257319	-0.0033702511445052874	-0.1126960256779519	0.5665845704046389	0.008998849277441545	-0.10534047443628575	0.5494082180553133	0.023581189753459464	-0.09473348404252638	0.5141440839133128	0.03258487886756023	-0.07712396219917061	0.5809956755092169	-0.007923803531918572	-0.08750644169075317	0.5695776028552086	0.002519886876605093	-0.08018818045472856	0.5533581032509671	0.012734175406880821	-0.07162032416460049	0.52061666064804	0.021692785871877618	-0.059429151710087474	0.4622830810018608	-0.023011742144276925	-0.051989820119430985
19	0.6666666666666637	0.5339388877509127	-0.010172698403961733	-0.147781086820634	0.5170366700635155	-0.01181528885239036	-0.13230152177937501	0.4904493803416716	-0.019503106645712642	-0.11805955973675569	0.47710894650010716	-0.027050519081368796	-0.07616732429335946	0.5625463876231447	0.007106667706003322	-0.1480573251492111	0.5481276030955112	0.017637132336991712	-0.1450228618686331	0.5262596868375388	0.02728961641005978	-0.1372361024172646	0.4888060432000243	0.023853190612295516	-0.11725982523630482	0.5753395787846145	0.0023800851484501173	-0.1328681977848125	0.5625148561932606	0.013609421539945488	-0.12675031460012734	0.5397752142131652	0.028621169454694506	-0.11640789432433502	0.5004996358863053	0.03412649227157627	-0.09583440923374781	0.5773058653609802	-0.003571969272516573	-0.11269863780312075	0.566494616014483	0.008843140359993007	-0.10535139747898287	0.5493585143981322	0.023478467144805393	-0.09475228382283887	0.5141394328918744	0.03259517542570256	-0.07711077702844682	0.5809919847524357	-0.007892481291388531	-0.08752855168370355	0.5695675292058422	0.002541869309010014	-0.0802069300728942	0.5533459600204952	0.012751570382901534	-0.07163752425062289	0.5206206247983218	0.02169390007468508	-0.05939127481335313	0.4622830810018609	-0.023011742144276925	-0.05198982011943101
20	0.6999999999999968	0.533547279447084	-0.0097008712328569	-0.14801440234253177	0.5167552289965078	-0.011510626527253431	-0.13243390724642826	0.49024640616110027	-0.019308264145531884	-0.1181056428904434	0.47704138881541125	-0.0270577994271215	-0.07620740641419713	0.562478243415943	0.007338984841795848	-0.14822255860387906	0.5480618930723745	0.0178485828369902	-0.14510531739555033	0.5262127008027436	0.027472859918291626	-0.1372315685535413	0.4888126849597155	0.023981965146421924	-0.11716446705300107	0.5752812742827632	0.002431190005399375	-0.13303436841164953	0.5624981362620547	0.013679111587036608	-0.1268638220471163	0.5397818640670896	0.028662007896336994	-0.11642862460054065	0.5005625057683272	0.0341533573266648	-0.09574445342866794	0.5772848889028643	-0.0035728590858967735	-0.11288576598758701	0.5665015776217097	0.008832026086459055	-0.10548042861010115	0.5493968659444267	0.023454832128062986	-0.09481354711143167	0.514225521861162	0.03253781819484336	-0.07705976572584292	0.5810108767895023	-0.008044784707961439	-0.08768354005009585	0.5696203497506125	0.0023964660728117426	-0.08031901861898255	0.5534192866624664	0.012599377209168483	-0.07170286064935841	0.5207294450233275	0.02155479045792108	-0.05937166937875965	0.4622830810018609	-0.023011742144276925	-0.051989820119430985
21	0.7333333333333302	0.5328395426323098	-0.009151998228047464	-0.148474922485519	0.51619864269341	-0.011149660282491758	-0.13275583232292493	0.48982196397991773	-0.019042671167794567	-0.11823718227515201	0.47692663338338637	-0.027014254979105146	-0.07628418118648839	0.5624135925664072	0.007788548804604889	-0.14852829485354513	0.548008401195057	0.0182614716697459	-0.1452406896133156	0.5261984789270029	0.027826788067750297	-0.13718824614145553	0.48889780957926987	0.024219939278088742	-0.11695740824433379	0.5753145385047247	0.002627124992461427	-0.13335875021828658	0.5625762714623133	0.01385744178853443	-0.12706458328245968	0.5398983731665478	0.028758922711864643	-0.11643122326887329	0.5007707549489381	0.034161398015945976	-0.09555083356451718	0.5774102550405922	-0.0034935116062847493	-0.11328661606086227	0.5666435298862496	0.008841084642636665	-0.10574106340867442	0.5495833225535571	0.02340397079522316	-0.09492202224633672	0.5144834134990298	0.032342900731080815	-0.07695503168125467	0.5810732615194867	-0.00854052863486976	-0.08802416352509221	0.5697509129570736	0.001903969064100508	-0.08055978874568653	0.553618164244021	0.012132872184976717	-0.07184681113150504	0.5210028636405989	0.02119029285814278	-0.05939334782615413	0.4622830810018608	-0.023011742144276925	-0.05198982011943101
22	0.7666666666666633	0.5318742618709996	-0.00844766923219964	-0.1490803812168478	0.5153823748905907	-0.010661327491065964	-0.13323369762253176	0.48918365423823773	-0.018634297622274643	-0.11843914512957562	0.4767404256144777	-0.026920492967992704	-0.07641064256156302	0.5622535712741583	0.008403944466091606	-0.14896384074581268	0.5478773654581901	0.01883367726453644	-0.14542189494019037	0.5261409317048271	0.028348559979852195	-0.13711501299812265	0.48898294470641357	0.02459198057708245	-0.11665020888431735	0.5753743723849913	0.003107526966854901	-0.1338887335747988	0.5626625074929111	0.014251639305076225	-0.12739125320479355	0.5400409868675757	0.029018276347439698	-0.11645403303435622	0.5010401963415825	0.0341858508634274	-0.09527899034327025	0.5775739881367101	-0.0032582033505150765	-0.11394336201156455	0.5668361076027251	0.008970775251563645	-0.10618771864767992	0.5498178636856887	0.02338030734491947	-0.09510057574110534	0.5148141074077319	0.03208429059506901	-0.07683315786077749	0.5811080176613703	-0.009254537910768246	-0.08861077010636334	0.5698900476970314	0.0011985827992324616	-0.08100226057417853	0.553874650943822	0.011471309774412575	-0.07212587807167817	0.5213739694872987	0.020677602055188316	-0.059483357029475714	0.4622830810018609	-0.023011742144276925	-0.051989820119430985
23	0.7999999999999965	0.530592443449601	-0.007636966485540464	-0.14984134093924606	0.5142967750418463	-0.01014555550112517	-0.13383639881828258	0.4883076083604191	-0.01820786546623765	-0.11872407360898901	0.47651355251056493	-0.02677876015344205	-0.0765656816701191	0.5618969595943832	0.00913178045052565	-0.1495425076658112	0.5475652175885553	0.019521433613151062	-0.14571415576992486	0.5259316091679428	0.028981619675286452	-0.13708271907761316	0.4889609772406943	0.025060529915355567	-0.11631174115180329	0.5753722449947215	0.004050514523355586	-0.13466227723498173	0.5626693707674943	0.015040266122754886	-0.1278901028315313	0.5400802906044565	0.029548591811665248	-0.11654763867719703	0.5012362890735451	0.034274493445540455	-0.09498476967018657	0.5777341721932633	-0.002658172839580697	-0.11486285663791018	0.5670113646010663	0.009406485117048224	-0.10683382022435026	0.5500152608606428	0.023566194734003454	-0.09539637906785597	0.5151260466101601	0.03183896720681789	-0.07671417366814531	0.5811012563998658	-0.010011255056113999	-0.0894144340305345	0.5700066615604362	0.00043834217426386157	-0.08162239430580398	0.5541419262130539	0.010757833734094335	-0.07253227410285223	0.5217768376239971	0.0200992767908329	-0.05964344431732821	0.4622830810018609	-0.023011742144276925	-0.05198982011943101
24	0.8333333333333297	0.5291318483311038	-0.006712600996782725	-0.15069502913102692	0.5130596177896852	-0.009532750706765292	-0.1345169525754912	0.48732047837442094	-0.01767322957434514	-0.11902342792910814	0.4762445930362508	-0.026604972877427913	-0.07674531626901213	0.5613239303727696	0.009927016558722412	-0.15020042603051714	0.5470558618768859	0.020283201427740427	-0.1460565562985522	0.5255509767105844	0.0297148918083896	-0.1370791979149431	0.4888145374195022	0.025657055976711973	-0.11592254197465343	0.5752499869024094	0.005438591837413687	-0.13562616987380466	0.5625303836924158	0.016201269586866962	-0.1285285321089039	0.5399715761029298	0.030368254084076507	-0.11670456067810397	0.5013210856549418	0.03445320381964978	-0.09466821128016978	0.5778387958586796	-0.0016321694856318292	-0.11601281799631047	0.5671101068773123	0.010210331221270463	-0.10766713589428237	0.5501111585516945	0.024006510721595098	-0.0957977986753053	0.5153450331080143	0.03166494129447173	-0.07663048804510136	0.5809748587207124	-0.010692265801086176	-0.09040642621913991	0.5700268523405309	-0.0002452335064399014	-0.08240638418586782	0.5543260100517122	0.010095421996272669	-0.07305938390792502	0.5221210553630907	0.019577854042363008	-0.0598757642609872	0.4622830810018609	-0.023011742144276925	-0.051989820119430985
25	0.8666666666666629	0.5276285594584065	-0.0057340110204434636	-0.151518060799177	0.5117571982563698	-0.008860162987337272	-0.13519853055243355	0.48627351538310637	-0.017073038685889275	-0.11932557934684243	0.4759548198213336	-0.02638272885777515	-0.07693755992145596	0.5605530617133561	0.010749418236057129	-0.15093677551468238	0.5463756265827786	0.021091379091466855	-0.1464597029462012	0.5250366914307557	0.0305229345527539	-0.13709458462562313	0.48857543188186303	0.02634921714167693	-0.11548919805003166	0.5750060437216491	0.007185025567421954	-0.1367390359201776	0.5622729996756879	0.01767867116407429	-0.1292722433413343	0.5397469139072755	0.03141664979247982	-0.11689270566177609	0.5013334806548145	0.03470527636053666	-0.0943152611196095	0.5778752931681927	-0.0002824592975916307	-0.1173471905124141	0.5671244407204485	0.0112730411229095	-0.10863572785229608	0.5501284177601335	0.024633496682039735	-0.09627395573884276	0.5155205286389606	0.031534468348155764	-0.07654095204857644	0.5807453923360115	-0.01135723104038644	-0.09160691719324107	0.5699759137874162	-0.000909249317016636	-0.08336931986759594	0.5544772015116312	0.00946164350622658	-0.07372325751857334	0.522456562700034	0.01904636573259999	-0.060169835775688324	0.4622830810018609	-0.023011742144276925	-0.05198982011943096
26	0.8999999999999961	0.5260614439559176	-0.004729240677549984	-0.1523228177695103	0.5103865019567662	-0.00814217344493362	-0.13587143231877827	0.48516009312966846	-0.016413778362527554	-0.11962246774329335	0.4756417642014942	-0.026131974677767178	-0.07713896418257524	0.5595720936274323	0.011514413694368675	-0.15173723101476622	0.5455286293679406	0.021882148704743143	-0.1469111371131693	0.5244008199265512	0.03135478853764495	-0.13711855850462779	0.488252513464963	0.02713873352014462	-0.11500157602399733	0.5746286049683381	0.00915605056550195	-0.13798322203992594	0.5618838314052821	0.019330753971836145	-0.13010628371215163	0.5394219193993876	0.03259218971640421	-0.11710603829015498	0.5013022216553457	0.03500798467895638	-0.09392845214315076	0.5777995107548731	0.0012546955800724069	-0.1188418121622227	0.567043705425999	0.012483353013622689	-0.1097187696890487	0.5500804736195269	0.025363179399418234	-0.09681377771107119	0.515678166511863	0.0314193756748784	-0.07645390083661344	0.5803744938986497	-0.012073751566114677	-0.09303183782397031	0.5698296899967303	-0.0016152039951049524	-0.08452149744446766	0.5545743266189818	0.008788275180705019	-0.07452882371561331	0.5227922871464891	0.018493951987181845	-0.060507937306504195	0.462283081001861	-0.023011742144276925	-0.051989820119430985
